<?xml version="1.0" ?><svg viewBox="0 0 64 64" xmlns="http://www.w3.org/2000/svg"><defs><style>.cls-1{fill:none;stroke: #fff;stroke-linejoin:round;stroke-width:2px;}</style></defs><title/><g data-name="Layer 12" id="Layer_12"><path class="cls-1" d="M27,58H6a4,4,0,0,1-4-4V34a4,4,0,0,1,4-4H28"/><polyline class="cls-1" points="4 30 4 26 26 26"/><line class="cls-1" x1="10" x2="10" y1="26" y2="9"/><line class="cls-1" x1="10" x2="10" y1="46" y2="30"/><polyline class="cls-1" points="23 26 23 16 19 12"/><line class="cls-1" x1="23" x2="23" y1="45" y2="30"/><polyline class="cls-1" points="10 16 16 10 16 2"/><polyline class="cls-1" points="10 14 6 14 6 5 3 2"/><line class="cls-1" x1="25" x2="28" y1="5" y2="2"/><polyline class="cls-1" points="23 23 27 20 27 8 21 2"/><polyline class="cls-1" points="23 20 18 20 15 17"/><path class="cls-1" d="M2,46l1.29-1.29A2.41,2.41,0,0,1,5,44H5a2.41,2.41,0,0,1,1.71.71l.58.58A2.41,2.41,0,0,0,9,46H9a2.41,2.41,0,0,0,1.71-.71l.58-.58A2.41,2.41,0,0,1,13,44h0a2.41,2.41,0,0,1,1.71.71l.58.58A2.41,2.41,0,0,0,17,46h0a2.41,2.41,0,0,0,1.71-.71l.58-.58A2.41,2.41,0,0,1,21,44h0a2.41,2.41,0,0,1,1.71.71l.58.58A2.41,2.41,0,0,0,25,46h0a2.41,2.41,0,0,0,1.71-.71l.58-.58A2.41,2.41,0,0,1,29,44h0a2.43,2.43,0,0,1,1,.22"/><polygon class="cls-1" points="62 62 26 62 31 37 26 26 62 26 57 37 62 62"/><path class="cls-1" d="M52,62H36V49a8,8,0,0,1,8-8h0a8,8,0,0,1,8,8Z"/><rect class="cls-1" height="4" width="8" x="40" y="58"/><line class="cls-1" x1="44" x2="44" y1="58" y2="54"/><path class="cls-1" d="M44,54h0a2.41,2.41,0,0,0,1.71-.71l.44-.44A2.88,2.88,0,0,0,47,50.8h0a2.91,2.91,0,0,0-.41-1.49L44,45l-2.59,4.31A2.91,2.91,0,0,0,41,50.8h0a2.88,2.88,0,0,0,.85,2.05l.44.44A2.41,2.41,0,0,0,44,54Z"/><polyline class="cls-1" points="34 26 34 22 54 22 54 26"/><path class="cls-1" d="M39,7,37.71,8.29A2.41,2.41,0,0,0,37,10h0a2.41,2.41,0,0,0,.71,1.71l.58.58A2.41,2.41,0,0,1,39,14h0a2.41,2.41,0,0,1-.71,1.71L37,17"/><path class="cls-1" d="M45,7,43.71,8.29A2.41,2.41,0,0,0,43,10h0a2.41,2.41,0,0,0,.71,1.71l.58.58A2.41,2.41,0,0,1,45,14h0a2.41,2.41,0,0,1-.71,1.71L43,17"/><path class="cls-1" d="M51,7,49.71,8.29A2.41,2.41,0,0,0,49,10h0a2.41,2.41,0,0,0,.71,1.71l.58.58A2.41,2.41,0,0,1,51,14h0a2.41,2.41,0,0,1-.71,1.71L49,17"/></g></svg>