<?xml version="1.0" ?><svg height="256" viewBox="0 0 256 256" width="256" xmlns="http://www.w3.org/2000/svg" fill="#fff"><title/><g id="exercise-cardio-running-treadmill"><path d="M223.57,204.07l-37.86-3.31a1.968,1.968,0,0,0-2.16,1.81l-.17,2-48.69-4.26-11.48-1.01-48.04-4.2.18-2a2.006,2.006,0,0,0-1.82-2.17l-2.61-.23a1.739,1.739,0,0,0-.2-.49c-17.23-29.51-18.39-50.97-16.33-63.77a49.251,49.251,0,0,1,5.12-15.56,33.7,33.7,0,0,1,3.02-4.7l56.71,20.97a1.988,1.988,0,0,0,2.68-1.7l.82-9.4a1.992,1.992,0,0,0-.97-1.89L82.109,90.7,60.809,45a2.059,2.059,0,0,0-1.13-1.04,2.027,2.027,0,0,0-1.53.07L50.9,47.41a2.024,2.024,0,0,0-1.04,1.13,1.982,1.982,0,0,0,.07,1.53l9.96,21.36c-3.62,2.78-12.61,11.84-14.55,34.41a1.937,1.937,0,0,0,.13.9c-14.92,20.64-19.71,38.5-20.77,51.14-1.4,16.67,3.08,27.6,4.35,30.32a17.9,17.9,0,0,0-12.96,15.66l-.02.22A17.9,17.9,0,0,0,24,220.54V238a2.006,2.006,0,0,0,2,2H224a2.028,2.028,0,0,0,.95-.24.01.01,0,0,0,.01-.01,18.027,18.027,0,0,0,14.97-16.18c.05-.53.07-1.05.07-1.58A18.018,18.018,0,0,0,223.57,204.07Zm-91.031.06,50.49,4.42-1.75,19.93-108.2-9.47,1.75-19.93Zm-14.37-81.64-55.73-20.61-6.25-2.31c3.49-4.11,7.4-8.31,11.79-12.59l11.51,6.81,39.16,23.17Zm-98.12,81.94.02-.22a13.924,13.924,0,0,1,11.61-12.5,13.575,13.575,0,0,1,2.22-.18c.4,0,.81.02,1.22.05l36.07,3.16-.18,2.01-2.09,23.91-.17,1.97-36.07-3.15a13.621,13.621,0,0,1-5.32-1.59A13.912,13.912,0,0,1,20.049,204.43Zm215.9,18.79A14.034,14.034,0,0,1,222,236c-.4,0-.81-.01-1.22-.05l-35.86-3.14.17-1.99,2.09-23.91.02-.18.16-1.81,35.86,3.13A14.022,14.022,0,0,1,235.95,223.22Z"/><path d="M210.35,158.24l-5.67-23.32a2.009,2.009,0,0,0-.91-1.24,1.954,1.954,0,0,0-1.51-.23l-5.83,1.42a2,2,0,0,0-1,.58l-2.45,2.65a1.319,1.319,0,0,0-.14.19l-15.4,1.749-.235.041-5.2,1.21-3.7-14.65a26.445,26.445,0,0,0,1.3-8.23v-3.22a1.1,1.1,0,0,0,.14-.21,2.044,2.044,0,0,0,0-1.95l-3.99-7.2a16.039,16.039,0,0,1-.9-2.8l8.81-1.82a2.018,2.018,0,0,0,1.5-1.34l1.88-5.85a2.047,2.047,0,0,0,.01-1.2c-2.09-6.81-5.99-17.37-8.71-23.54a.605.605,0,0,0-.07-.14,7.9,7.9,0,0,0-3.57-5.38,32.329,32.329,0,0,1-2.11-15.33c0-.028,0-.056.006-.084a1.657,1.657,0,0,1,1.365-1.566c4.795-.848,9.943-3.421,10.618-9.509l.03-.26a14.442,14.442,0,0,0-.3-4.5,7.733,7.733,0,0,0,1.18-.28c.51.91,1.5,3.62,1.5,10.77,0,10.26,4.2,16.96,8.1,18.85a5.261,5.261,0,0,0,2.26.56,3.656,3.656,0,0,0,2.3-.78c1.02-.81,2.08-2.52,1.29-6.06a28.018,28.018,0,0,1-.2-9.8,48.955,48.955,0,0,0-.79-17.19c-.94-4.37-2.92-7.18-5.87-8.34-3.88-1.53-8.15.41-10.06,1.49a5.319,5.319,0,0,0-.99-.25,6.828,6.828,0,0,0-4.3.88C164.98,18.31,160.36,16,156,16c-6.49,0-13.84,0-16.97,4.63-2.02,3-1.89,7.36.43,13.29-1.15,2.15-3.14,7.93.24,18.9a5.546,5.546,0,0,0,3.69,3.97,6.1,6.1,0,0,0,1.81.26,11.365,11.365,0,0,0,4.41-1.06,82.475,82.475,0,0,0,.75,10.07,22.614,22.614,0,0,0-10.07,17.05l-.62,11.92c-7.05,1.46-6.92,3.6-6.88,4.35.15,2.53,2.16,5.31,4.58,8.43l.62.8a3.8,3.8,0,0,0,.93.86l-.29,5.42-9.11,36.13-.06.437c-.27,10.3-2.38,21.532-6.49,34.273l-1.72-.48a10.986,10.986,0,0,0-13.56,7.64,2,2,0,0,0,1.39,2.47l14.13,3.94h0l8.99,2.51a2.423,2.423,0,0,0,.54.07,2,2,0,0,0,1.92-1.46l.03-.11h0l1.58-5.68a1.961,1.961,0,0,0-.02-1.15l-1.12-3.43a1.191,1.191,0,0,0-.08-.2l9.39-20.8a1.829,1.829,0,0,0,.17-.76l.38-12.75,7.69-8.41,7.37,10.5a5.986,5.986,0,0,0,4.91,2.56,5.791,5.791,0,0,0,2.43-.53,134.116,134.116,0,0,1,27.77-8.83l.42,1.74a11,11,0,0,0,10.68,8.4,11.184,11.184,0,0,0,2.6-.31,2.029,2.029,0,0,0,1.25-.91A2,2,0,0,0,210.35,158.24ZM169.61,83.37c1.31,3.58,2.54,7.14,3.44,10.02l-1.34,4.14-9.45,1.96a1.9,1.9,0,0,0-.36.08l-9.65,1.99-.31-.85-1.02-2.81,14.72-5.01a2,2,0,1,0-1.28-3.78l-1.84.62-1.41-2.49Zm-25.04-30.4c-.21-.07-.7-.22-1.04-1.33-3.41-11.1-.62-15.76-.35-16.16,5.32-.35,10.46-.15,12.3.45-1.8,4.74,1.27,9.94,1.41,10.17a1.981,1.981,0,0,0,1.56.97c.16.01.33.03.51.03a1.838,1.838,0,0,0-.34.93,37.3,37.3,0,0,0,1.39,14.5,4.291,4.291,0,0,0-.9.09,22.372,22.372,0,0,0-4.97,1.43,74.6,74.6,0,0,1-.53-9.76,1.574,1.574,0,0,0-.06-.53c.62-.43,1.07-.78,1.31-.97a2,2,0,1,0-2.49-3.12C150.28,51.33,146.359,53.52,144.57,52.97ZM137,100.01a32.379,32.379,0,0,1,4.97-1.33c.12-.02.23-.04.34-.06a2,2,0,0,0,1.3-.79l1.1-1.51,1.94,1.56,1.81,4.97-6.85,3.27a.536.536,0,0,1-.43.05.035.035,0,0,1-.02-.01l-.63-.81A27.441,27.441,0,0,1,137,100.01Zm-24.64,92.11a7.013,7.013,0,0,1,5.92-3.28,7.235,7.235,0,0,1,1.89.26l3.46.97,8.03,2.24v.01l.6,1.82-.91,3.28Zm29.18-38.73a1.981,1.981,0,0,0-.52,1.29l-.39,13.09-9.18,20.33-4.62-1.29c4.15-12.95,6.32-24.43,6.62-35.03l4.85-19.22a29.2,29.2,0,0,0,14.47,8.55Zm24.21,2.63a1.972,1.972,0,0,1-2.43-.69l-7.29-10.39,4.72-6.62c.4-.35.78-.72,1.15-1.1.2-.2.4-.41.59-.62.17-.18.34-.38.52-.57a1.326,1.326,0,0,0,.11-.14q.255-.285.48-.57a24.423,24.423,0,0,0,1.56-2.11c.17-.25.33-.51.49-.77l2.96,11.73a2.015,2.015,0,0,0,2.4,1.46L178,144l15.08-1.72,1.13,4.66A137.572,137.572,0,0,0,165.75,156.02Zm33.72-4.4-.88-3.61-1.94-7.98v-.01l1.31-1.41,3.3-.8,4.66,19.15A7,7,0,0,1,199.47,151.62Z"/></g></svg>