<svg data-name="Layer 1" id="Layer_1" viewBox="0 0 24 24" xmlns="http://www.w3.org/2000/svg">
  <defs>
    <style>
      .cls-1{fill:#fff}
    </style>
  </defs>
  <path class="cls-1" d="M9.81 6.67a3.92 3.92 0 0 0 1.32.66c.8.31.95.21 1 .15s0-.17 0-.54V6.21a1.67 1.67 0 0 1 .24-.66 1.13 1.13 0 0 1 .86-.32 1.48 1.48 0 0 0-.77-1 1.66 1.66 0 0 0-1.07 0c-1.59.26-2.38.4-2.52.75-.21.54.58 1.38.94 1.69Z"/>
  <path class="cls-1" d="M20.16 17.87a5.91 5.91 0 0 0-2.6-2.25 8.39 8.39 0 0 0-3.21-.77 20.2 20.2 0 0 0 .36-2c.3-2.5-.15-2.9-.3-3l-.56-.33-.7-.4a4 4 0 0 1-.61-1.94c0-.29.22-.34.44-.38s.39 0 .44-.31a1 1 0 0 0-.21-1c-.13-.12-.63.08-.72.29a2.4 2.4 0 0 0-.09 1.65c.12.34 0 .54-.36.43-.21-.06-.3 0-.31.23a3.64 3.64 0 0 1-.07.44L11 8.21 9.55 6.54A2.05 2.05 0 0 0 9 6.05a.75.75 0 0 0-.31 0 8.19 8.19 0 0 0-3.3.95h-.07a1.92 1.92 0 0 0-.89 1l-.16.29L3.7 9a12.73 12.73 0 0 0 .08 3.55c.18 1.75.22 4.37 1.3 6.58 0 0 .22.6 1.41.65a10.38 10.38 0 0 0 4.61-1.12 7 7 0 0 0 1.69-1.08 5.67 5.67 0 0 0 .74.32 5.16 5.16 0 0 0 1.81.24 4.56 4.56 0 0 0-1 .28 4.37 4.37 0 0 0-1.19.76c0-.36 0-.74-.26-.84s-.49 0-.92.39-.75 0-1.34.32a4.7 4.7 0 0 0-.57.36c-.73-.21-.73.38-.73.38 1.05 0 7.46.32 9.64-.18.36-.08 1.21-.28 1.39-.84a1.15 1.15 0 0 0-.2-.9Zm-7.62-4.09c0 .17-1.32 0-2.21.44-1.09.56-.8 1.72-1.91 2.66a3.65 3.65 0 0 1-2.17.79 4.69 4.69 0 0 0 .08-2.09 4.89 4.89 0 0 0-2-3c.65-.28.79-.53.8-.7s0-.42-.45-.74-.06-.66-.37-1.17a4.45 4.45 0 0 0-.27-.37c.09-.3 0-.46-.09-.54L4.06 9l.36-.29a4.85 4.85 0 0 0 .49-.51c.1-.11.12-.08.22-.16a1.53 1.53 0 0 0 .44-.58c.47 0 1-.06 1.49-.12s1.11-.16 1.61-.25L11 9.8c.15.59.2.77.21.79a.42.42 0 0 0 0 .09c0 .06.05.13.08.19a5.07 5.07 0 0 0 .64 1.06 3.17 3.17 0 0 1 .63 1.85Z"/>
</svg>
