<?xml version="1.0" ?><!DOCTYPE svg  PUBLIC '-//W3C//DTD SVG 1.1//EN'  'http://www.w3.org/Graphics/SVG/1.1/DTD/svg11.dtd'><svg enable-background="new 0 0 64 64" height="64px" id="Layer_1" version="1.1" viewBox="0 0 64 64" width="64px" xml:space="preserve" xmlns="http://www.w3.org/2000/svg" xmlns:xlink="http://www.w3.org/1999/xlink"><g><g><path d="M20.391,4.975c-0.017,0-0.017,0-0.034,0c-0.051-0.066-0.102-0.134-0.152-0.202    C20.272,4.84,20.323,4.908,20.391,4.975z" fill="#fff"/><g><path d="M21.611,33.831V32.6h3.504c1.155-0.603,2.371-1.433,3.679-2.587c0.399-0.352,0.757-0.637,1.124-0.938     h-8.307v-3.253h13.338v0.031c1.034-0.436,1.95-0.675,2.83-0.862V9.941c0-0.052,0.017-0.102,0.017-0.153V9.585     c0.017-4.677,2.797-3.932,2.797-3.932c1.644,0.168,2.016,2.458,2.101,3.763c0.085,0.831,0.66,0.897,0.66,0.897h1.271     c0.491,0,0.595-0.372,0.595-0.661c-0.017-0.101-0.017-0.203-0.035-0.323V9.313c-0.117-0.966-0.321-2.439-0.593-3.237     c-0.168-0.423-0.391-0.796-0.627-1.102c-0.051-0.066-0.101-0.134-0.152-0.202c-0.067-0.068-0.119-0.136-0.187-0.187     c-0.137-0.136-0.271-0.253-0.406-0.356c-0.135-0.119-0.289-0.22-0.44-0.321c0-0.017-0.017-0.017-0.017-0.017     c-0.288-0.17-0.577-0.306-0.899-0.423c-0.457-0.17-0.864-0.238-1.169-0.29c-0.188-0.017-0.355-0.033-0.542-0.033     c-0.017,0-0.033,0-0.033,0h-0.085c-2.797,0-5.084,2.287-5.084,5.084v7.151H21.611V9.941c0-0.052,0.017-0.102,0.017-0.153V9.585     c0-4.677,2.797-3.932,2.797-3.932c1.627,0.168,2.016,2.458,2.1,3.763c0.086,0.831,0.662,0.897,0.662,0.897h1.271     c0.492,0,0.593-0.372,0.593-0.661c-0.017-0.101-0.017-0.203-0.033-0.323V9.313c-0.119-0.966-0.323-2.439-0.594-3.237     c-0.169-0.423-0.389-0.796-0.627-1.102c-0.05-0.066-0.101-0.134-0.153-0.202c-0.067-0.068-0.117-0.136-0.185-0.187     c-0.136-0.136-0.272-0.253-0.408-0.356c-0.135-0.119-0.288-0.22-0.44-0.321c0-0.017-0.018-0.017-0.018-0.017     c-0.288-0.17-0.576-0.306-0.897-0.423c-0.458-0.17-0.865-0.238-1.17-0.29c-0.187-0.017-0.355-0.033-0.543-0.033     c-0.017,0-0.033,0-0.033,0h-0.084c-2.797,0-5.084,2.287-5.084,5.084v25.843C19.702,34.076,20.64,34.014,21.611,33.831z      M21.611,18.906h13.338v3.39H21.611V18.906z" fill="#fff"/></g><g><path d="M59.71,53.119c0,1.622-1.314,2.937-2.936,2.937H7.226c-1.621,0-2.936-1.314-2.936-2.937V11.742H0.012     v45.723c0,1.874,1.518,3.39,3.389,3.39h57.198c1.872,0,3.39-1.516,3.39-3.39V11.742H59.71V53.119z" fill=" #fff"/></g></g><path d="M56.011,32.505c-0.548-0.525-1.27-1.06-2.018-1.648c-6.778-4.711-13.355-3.017-13.355-3.017   c-2.592,0.526-5.084,0.848-10.066,5.237c-4.965,4.406-8.677,4.187-12.39,3.983c-3.711-0.221-7.457-3.408-8.252-4.188   c-0.457-0.455-1.119-0.472-1.672-0.31c-0.821,0.338-1.018,1.448-1.057,2.182v15.72c0,1.373,1.526,2.509,3.389,2.509h42.81   c1.881,0,3.39-1.136,3.39-2.509V34.94C56.751,34.195,56.585,33.137,56.011,32.505z" fill="#0466c8"/></g></svg>